<svg xmlns="http://www.w3.org/2000/svg" viewBox="0 0 27 27"><path d="M1 1h7v7h-7zM9 1h4v1h-1v1h1v1h-3v-1h1v-1h-2zM14 1h1v1h1v2h-1v-1h-1zM16 1h1v1h-1zM19 1h7v7h-7zM2 2v5h5v-5zM20 2v5h5v-5zM3 3h3v3h-3zM21 3h3v3h-3zM9 4h1v1h2v1h-1v1h-1v1h1v-1h1v1h1v-1h-1v-1h1v-2h2v2h1v2h-1v-1h-1v2h-2v1h-5v-1h2zM17 4h1v1h-1zM16 5h1v1h-1zM17 7h1v2h5v2h1v1h1v1h1v1h-1v1h-1v-1h-2v-1h1v-1h-1v-1h-1v1h-1v-2h-1v2h1v2h-1v-1h-1v-1h-3v-1h1v-1h1v1h1v-1h-1zM1 9h1v2h-1zM5 9h1v1h1v1h-2zM15 9h1v1h-1zM25 9h1v1h-1zM14 10h1v1h-1zM24 10h1v1h-1zM2 11h3v1h-2v2h-1v1h-1v-2h1zM7 11h1v1h-1zM10 11h1v1h-1zM12 11h2v1h-1v1h1v1h-2v-1h-1v-1h1zM5 12h2v1h1v-1h1v1h1v2h-1v-1h-2v1h-2v-1h1v-1h-1zM21 12h1v1h-1zM4 13h1v1h-1zM15 13h2v2h1v1h1v-1h1v-1h2v1h-1v1h-1v1h2v-2h2v1h1v1h-1v2h-1v-1h-1v1h1v1h1v2h2v1h-1v2h1v1h-3v-1h-3v-1h4v-1h-2v-1h1v-1h-1v1h-2v2h-1v-2h-1v2h-1v-3h-1v1h-1v-3h1v1h1v-1h-1v-1h-1v-1h1v-3h-1zM3 14h1v1h1v1h2v1h4v1h-1v2h-1v-2h-5v-2h-1zM7 15h2v1h-2zM10 15h1v1h-1zM14 15h1v1h-1zM11 16h1v1h-1zM13 16h1v2h1v1h-2v-1h-1v-1h1zM1 17h2v1h-2zM11 18h1v1h1v2h-3v-1h1zM18 18v3h3v-3zM1 19h7v7h-7zM19 19h1v1h-1zM2 20v5h5v-5zM3 21h3v3h-3zM9 21h1v1h-1zM11 22h4v1h-2v2h-1v-1h-2v-1h1zM18 24h1v1h1v1h-2zM9 25h2v1h-2zM15 25h1v1h-1z"/></svg>