<svg xmlns="http://www.w3.org/2000/svg" viewBox="0 0 27 27"><path d="M1 1h7v7h-7zM10 1h4v3h-2v-1h-1v-1h-1zM15 1h1v1h1v1h-1v1h-1zM19 1h7v7h-7zM2 2v5h5v-5zM20 2v5h5v-5zM3 3h3v3h-3zM9 3h2v1h-1v1h1v1h-1v2h1v1h1v1h-1v1h-1v-2h-1zM21 3h3v3h-3zM14 4h1v1h-1zM17 4h1v1h-1zM15 5h1v1h-1zM11 6h1v2h-1zM13 6h1v3h-2v-1h1zM16 6h2v2h-1v-1h-1zM15 7h1v1h-1zM16 8h1v1h1v1h-2zM1 9h1v2h-1zM3 9h5v1h-3v1h-1v-1h-1zM14 9h1v1h-1zM19 9h5v1h-5zM8 10h1v1h-1zM15 10h1v1h-1zM18 10h1v1h1v1h-1v1h-2v-1h1zM24 10h1v1h1v3h-1v1h1v2h-1v-1h-1v-2h-1v-1h2v-1h-1zM5 11h3v1h-1v1h-1v-1h-1zM9 11h1v2h-1zM11 11h1v2h-1zM16 11h1v1h-1zM21 11h2v1h-2zM2 12h1v1h-1zM7 13h1v1h-1zM10 13h1v1h-1zM12 13h3v1h-3zM19 13h3v1h-3zM1 14h2v1h-1v3h-1zM4 14h2v1h2v1h-1v1h1v1h-2v-2h-1v1h-1v-1h-1v-1h1zM15 14h1v1h-1zM22 14h1v3h-1zM9 15h2v1h1v-1h2v1h-1v2h-2v-1h-1v-1h-1zM16 15h1v2h5v1h1v-1h1v2h2v7h-7v-2h4v1h2v-2h-1v1h-1v-2h-1v1h-3v-1h-1v1h1v1h-1v1h-1v1h-1v-1h-1v-1h2v-1h-1v-1h-1v-1h1v-1h1v-2h-1zM18 15h1v1h-1zM20 15h1v1h-1zM8 16h1v1h-1zM3 17h1v1h-1zM9 17h1v2h-1zM13 18h2v1h1v1h-1v1h-1v1h-1v-2h1v-1h-1zM18 18v3h3v-3zM1 19h7v7h-7zM11 19h1v1h-1zM19 19h1v1h-1zM2 20v5h5v-5zM9 20h1v1h2v2h2v1h-1v2h-4v-1h1v-1h-1zM23 20v1h1v-1zM3 21h3v3h-3zM11 24v1h1v-1z"/></svg>