<svg xmlns="http://www.w3.org/2000/svg" viewBox="0 0 23 23"><path d="M1 1h7v7h-7zM9 1h5v1h-3v2h-1v-2h-1zM15 1h7v7h-7zM2 2v5h5v-5zM16 2v5h5v-5zM3 3h3v3h-3zM13 3h1v1h-1zM17 3h3v3h-3zM9 4h1v2h1v-2h1v2h1v1h-1v1h-1v-1h-1v2h1v1h-1v3h1v-3h1v1h1v2h-1v2h-2v1h-1v-3h-1v-1h1v-2h-2v-1h2zM13 5h1v1h-1zM13 7h1v2h-1v1h-1v-2h1zM1 9h1v1h-1zM5 9h1v1h1v1h-1v1h-1v1h1v-1h1v1h1v1h-7v-3h2v1h-1v1h2v-2h1zM14 9h5v1h-3v1h-1v-1h-1zM21 9h1v1h-1zM3 10h1v1h-1zM13 10h1v1h-1zM19 10h2v2h1v3h-2v-1h-1v-1h1v-2h-1zM7 11h1v1h-1zM14 11h1v1h-1zM16 11h2v1h1v1h-2v1h-1v-1h-1v-1h1zM13 13h2v1h1v1h1v1h1v-1h1v2h-3v1h1v2h1v2h-2v-3h-2v1h-1v1h-1v-1h-1v2h-2v-1h1v-3h-1v-1h1v-1h2v-1h1v2h-1v1h-1v1h2v-2h2v-1h-1v-1h-1zM1 15h7v7h-7zM2 16v5h5v-5zM20 16h1v2h1v1h-2v-1h-1v-1h1zM3 17h3v3h-3zM18 18h1v2h-1zM14 20h1v1h-1zM19 20h1v1h1v-1h1v2h-3zM13 21h1v1h-1z"/></svg>